<?xml version="1.0" encoding="utf-8" standalone="no"?>
<!DOCTYPE svg PUBLIC "-//W3C//DTD SVG 1.1//EN"
  "http://www.w3.org/Graphics/SVG/1.1/DTD/svg11.dtd">
<svg xmlns:xlink="http://www.w3.org/1999/xlink" width="460.8pt" height="288pt" viewBox="0 0 460.8 288" xmlns="http://www.w3.org/2000/svg" version="1.1">
 <metadata>
  <rdf:RDF xmlns:dc="http://purl.org/dc/elements/1.1/" xmlns:cc="http://creativecommons.org/ns#" xmlns:rdf="http://www.w3.org/1999/02/22-rdf-syntax-ns#">
   <cc:Work>
    <dc:type rdf:resource="http://purl.org/dc/dcmitype/StillImage"/>
    <dc:date>2025-06-23T16:58:34.890105</dc:date>
    <dc:format>image/svg+xml</dc:format>
    <dc:creator>
     <cc:Agent>
      <dc:title>Matplotlib v3.10.3, https://matplotlib.org/</dc:title>
     </cc:Agent>
    </dc:creator>
   </cc:Work>
  </rdf:RDF>
 </metadata>
 <defs>
  <style type="text/css">*{stroke-linejoin: round; stroke-linecap: butt}</style>
 </defs>
 <g id="figure_1">
  <g id="patch_1">
   <path d="M 0 288 
L 460.8 288 
L 460.8 0 
L 0 0 
z
" style="fill: #ffffff"/>
  </g>
  <g id="axes_1">
   <g id="patch_2">
    <path d="M 38.27 236.792 
L 450 236.792 
L 450 10.8 
L 38.27 10.8 
z
" style="fill: #ffffff"/>
   </g>
   <g id="FillBetweenPolyCollection_1">
    <path d="M 131.845 192.278424 
L 56.985 192.278424 
L 57.062894 191.586683 
L 57.321617 190.894941 
L 57.756253 190.203199 
L 58.359115 189.511458 
L 59.1199 188.819716 
L 60.025892 188.127974 
L 61.062228 187.436233 
L 62.212199 186.744491 
L 63.457592 186.052749 
L 64.779044 185.361008 
L 66.156421 184.669266 
L 67.569192 183.977524 
L 68.996799 183.285783 
L 70.419004 182.594041 
L 71.816229 181.902299 
L 73.169845 181.210558 
L 74.462446 180.518816 
L 75.678075 179.827074 
L 76.802419 179.135333 
L 77.822957 178.443591 
L 78.729083 177.751849 
L 79.512182 177.060108 
L 80.165685 176.368366 
L 80.685084 175.676624 
L 81.067931 174.984883 
L 81.313808 174.293141 
L 81.424277 173.601399 
L 81.402816 172.909658 
L 81.254735 172.217916 
L 80.987077 171.526174 
L 80.608507 170.834433 
L 80.129179 170.142691 
L 79.5606 169.450949 
L 78.915467 168.759208 
L 78.207494 168.067466 
L 77.451219 167.375725 
L 76.661805 166.683983 
L 75.854815 165.992241 
L 75.045981 165.3005 
L 74.250965 164.608758 
L 73.485109 163.917016 
L 72.763185 163.225275 
L 72.099154 162.533533 
L 71.505923 161.841791 
L 70.995126 161.15005 
L 70.576923 160.458308 
L 70.259824 159.766566 
L 70.050548 159.074825 
L 69.953912 158.383083 
L 69.972773 157.691341 
L 70.107996 156.9996 
L 70.358477 156.307858 
L 70.721204 155.616116 
L 71.191366 154.924375 
L 71.762489 154.232633 
L 72.426616 153.540891 
L 73.17451 152.84915 
L 73.995887 152.157408 
L 74.87965 151.465666 
L 75.814147 150.773925 
L 76.787422 150.082183 
L 77.78746 149.390441 
L 78.802423 148.6987 
L 79.820865 148.006958 
L 80.831928 147.315216 
L 81.825508 146.623475 
L 82.792394 145.931733 
L 83.724378 145.239991 
L 84.614329 144.54825 
L 85.456245 143.856508 
L 86.24527 143.164766 
L 86.977685 142.473025 
L 87.650882 141.781283 
L 88.263312 141.089541 
L 88.814416 140.3978 
L 89.30455 139.706058 
L 89.734896 139.014316 
L 90.107365 138.322575 
L 90.424505 137.630833 
L 90.689396 136.939092 
L 90.905563 136.24735 
L 91.076879 135.555608 
L 91.207476 134.863867 
L 91.301668 134.172125 
L 91.363872 133.480383 
L 91.398539 132.788642 
L 91.410092 132.0969 
L 91.402866 131.405158 
L 91.381061 130.713417 
L 91.348691 130.021675 
L 91.309549 129.329933 
L 91.267166 128.638192 
L 91.224786 127.94645 
L 91.185339 127.254708 
L 91.151417 126.562967 
L 91.125265 125.871225 
L 91.108764 125.179483 
L 91.103433 124.487742 
L 91.110425 123.796 
L 97.719575 123.796 
L 97.719575 123.796 
L 97.726567 124.487742 
L 97.721236 125.179483 
L 97.704735 125.871225 
L 97.678583 126.562967 
L 97.644661 127.254708 
L 97.605214 127.94645 
L 97.562834 128.638192 
L 97.520451 129.329933 
L 97.481309 130.021675 
L 97.448939 130.713417 
L 97.427134 131.405158 
L 97.419908 132.0969 
L 97.431461 132.788642 
L 97.466128 133.480383 
L 97.528332 134.172125 
L 97.622524 134.863867 
L 97.753121 135.555608 
L 97.924437 136.24735 
L 98.140604 136.939092 
L 98.405495 137.630833 
L 98.722635 138.322575 
L 99.095104 139.014316 
L 99.52545 139.706058 
L 100.015584 140.3978 
L 100.566688 141.089541 
L 101.179118 141.781283 
L 101.852315 142.473025 
L 102.58473 143.164766 
L 103.373755 143.856508 
L 104.215671 144.54825 
L 105.105622 145.239991 
L 106.037606 145.931733 
L 107.004492 146.623475 
L 107.998072 147.315216 
L 109.009135 148.006958 
L 110.027577 148.6987 
L 111.04254 149.390441 
L 112.042578 150.082183 
L 113.015853 150.773925 
L 113.95035 151.465666 
L 114.834113 152.157408 
L 115.65549 152.84915 
L 116.403384 153.540891 
L 117.067511 154.232633 
L 117.638634 154.924375 
L 118.108796 155.616116 
L 118.471523 156.307858 
L 118.722004 156.9996 
L 118.857227 157.691341 
L 118.876088 158.383083 
L 118.779452 159.074825 
L 118.570176 159.766566 
L 118.253077 160.458308 
L 117.834874 161.15005 
L 117.324077 161.841791 
L 116.730846 162.533533 
L 116.066815 163.225275 
L 115.344891 163.917016 
L 114.579035 164.608758 
L 113.784019 165.3005 
L 112.975185 165.992241 
L 112.168195 166.683983 
L 111.378781 167.375725 
L 110.622506 168.067466 
L 109.914533 168.759208 
L 109.2694 169.450949 
L 108.700821 170.142691 
L 108.221493 170.834433 
L 107.842923 171.526174 
L 107.575265 172.217916 
L 107.427184 172.909658 
L 107.405723 173.601399 
L 107.516192 174.293141 
L 107.762069 174.984883 
L 108.144916 175.676624 
L 108.664315 176.368366 
L 109.317818 177.060108 
L 110.100917 177.751849 
L 111.007043 178.443591 
L 112.027581 179.135333 
L 113.151925 179.827074 
L 114.367554 180.518816 
L 115.660155 181.210558 
L 117.013771 181.902299 
L 118.410996 182.594041 
L 119.833201 183.285783 
L 121.260808 183.977524 
L 122.673579 184.669266 
L 124.050956 185.361008 
L 125.372408 186.052749 
L 126.617801 186.744491 
L 127.767772 187.436233 
L 128.804108 188.127974 
L 129.7101 188.819716 
L 130.470885 189.511458 
L 131.073747 190.203199 
L 131.508383 190.894941 
L 131.767106 191.586683 
L 131.845 192.278424 
z
" clip-path="url(#p97731a02b7)" style="fill: #ffa500; fill-opacity: 0.8"/>
   </g>
   <g id="FillBetweenPolyCollection_2">
    <path d="M 260.884725 226.519636 
L 227.385275 226.519636 
L 226.63227 224.444411 
L 225.887964 222.369186 
L 225.156055 220.293961 
L 224.440245 218.218736 
L 223.744201 216.143511 
L 223.071514 214.068287 
L 222.425652 211.993062 
L 221.809923 209.917837 
L 221.22743 207.842612 
L 220.681033 205.767387 
L 220.173318 203.692162 
L 219.706559 201.616937 
L 219.282696 199.541712 
L 218.903308 197.466487 
L 218.5696 195.391262 
L 218.282392 193.316037 
L 218.042109 191.240812 
L 217.84879 189.165587 
L 217.70209 187.090362 
L 217.601295 185.015137 
L 217.545339 182.939912 
L 217.532835 180.864687 
L 217.562093 178.789462 
L 217.631161 176.714237 
L 217.737859 174.639012 
L 217.879811 172.563787 
L 218.054489 170.488562 
L 218.259253 168.413337 
L 218.491383 166.338112 
L 218.74812 164.262887 
L 219.0267 162.187662 
L 219.324383 160.112437 
L 219.638482 158.037212 
L 219.966385 155.961987 
L 220.305571 153.886762 
L 220.653627 151.811537 
L 221.008252 149.736312 
L 221.367259 147.661087 
L 221.728577 145.585862 
L 222.09024 143.510637 
L 222.450378 141.435412 
L 222.807201 139.360187 
L 223.158981 137.284962 
L 223.504035 135.209737 
L 223.840703 133.134512 
L 224.167324 131.059287 
L 224.482218 128.984062 
L 224.783666 126.908837 
L 225.06989 124.833612 
L 225.339042 122.758388 
L 225.589188 120.683163 
L 225.818305 118.607938 
L 226.024277 116.532713 
L 226.204896 114.457488 
L 226.357875 112.382263 
L 226.480855 110.307038 
L 226.571427 108.231813 
L 226.62716 106.156588 
L 226.645625 104.081363 
L 226.624434 102.006138 
L 226.561274 99.930913 
L 226.453958 97.855688 
L 226.300462 95.780463 
L 226.09898 93.705238 
L 225.84797 91.630013 
L 225.546207 89.554788 
L 225.192829 87.479563 
L 224.78739 85.404338 
L 224.329902 83.329113 
L 223.820879 81.253888 
L 223.261374 79.178663 
L 222.653011 77.103438 
L 221.998006 75.028213 
L 221.299193 72.952988 
L 220.560022 70.877763 
L 219.784569 68.802538 
L 218.977518 66.727313 
L 218.144144 64.652088 
L 217.290284 62.576863 
L 216.422293 60.501638 
L 215.546995 58.426413 
L 214.671623 56.351188 
L 213.803742 54.275963 
L 212.951181 52.200738 
L 212.121935 50.125513 
L 211.324081 48.050288 
L 210.565676 45.975063 
L 209.854655 43.899838 
L 209.198733 41.824613 
L 208.605294 39.749388 
L 208.081301 37.674163 
L 207.633188 35.598938 
L 207.266775 33.523713 
L 206.987182 31.448489 
L 206.798755 29.373264 
L 206.705 27.298039 
L 206.70853 25.222814 
L 206.811029 23.147589 
L 207.013222 21.072364 
L 281.256778 21.072364 
L 281.256778 21.072364 
L 281.458971 23.147589 
L 281.56147 25.222814 
L 281.565 27.298039 
L 281.471245 29.373264 
L 281.282818 31.448489 
L 281.003225 33.523713 
L 280.636812 35.598938 
L 280.188699 37.674163 
L 279.664706 39.749388 
L 279.071267 41.824613 
L 278.415345 43.899838 
L 277.704324 45.975063 
L 276.945919 48.050288 
L 276.148065 50.125513 
L 275.318819 52.200738 
L 274.466258 54.275963 
L 273.598377 56.351188 
L 272.723005 58.426413 
L 271.847707 60.501638 
L 270.979716 62.576863 
L 270.125856 64.652088 
L 269.292482 66.727313 
L 268.485431 68.802538 
L 267.709978 70.877763 
L 266.970807 72.952988 
L 266.271994 75.028213 
L 265.616989 77.103438 
L 265.008626 79.178663 
L 264.449121 81.253888 
L 263.940098 83.329113 
L 263.48261 85.404338 
L 263.077171 87.479563 
L 262.723793 89.554788 
L 262.42203 91.630013 
L 262.17102 93.705238 
L 261.969538 95.780463 
L 261.816042 97.855688 
L 261.708726 99.930913 
L 261.645566 102.006138 
L 261.624375 104.081363 
L 261.64284 106.156588 
L 261.698573 108.231813 
L 261.789145 110.307038 
L 261.912125 112.382263 
L 262.065104 114.457488 
L 262.245723 116.532713 
L 262.451695 118.607938 
L 262.680812 120.683163 
L 262.930958 122.758388 
L 263.20011 124.833612 
L 263.486334 126.908837 
L 263.787782 128.984062 
L 264.102676 131.059287 
L 264.429297 133.134512 
L 264.765965 135.209737 
L 265.111019 137.284962 
L 265.462799 139.360187 
L 265.819622 141.435412 
L 266.17976 143.510637 
L 266.541423 145.585862 
L 266.902741 147.661087 
L 267.261748 149.736312 
L 267.616373 151.811537 
L 267.964429 153.886762 
L 268.303615 155.961987 
L 268.631518 158.037212 
L 268.945617 160.112437 
L 269.2433 162.187662 
L 269.52188 164.262887 
L 269.778617 166.338112 
L 270.010747 168.413337 
L 270.215511 170.488562 
L 270.390189 172.563787 
L 270.532141 174.639012 
L 270.638839 176.714237 
L 270.707907 178.789462 
L 270.737165 180.864687 
L 270.724661 182.939912 
L 270.668705 185.015137 
L 270.56791 187.090362 
L 270.42121 189.165587 
L 270.227891 191.240812 
L 269.987608 193.316037 
L 269.7004 195.391262 
L 269.366692 197.466487 
L 268.987304 199.541712 
L 268.563441 201.616937 
L 268.096682 203.692162 
L 267.588967 205.767387 
L 267.04257 207.842612 
L 266.460077 209.917837 
L 265.844348 211.993062 
L 265.198486 214.068287 
L 264.525799 216.143511 
L 263.829755 218.218736 
L 263.113945 220.293961 
L 262.382036 222.369186 
L 261.63773 224.444411 
L 260.884725 226.519636 
z
" clip-path="url(#p97731a02b7)" style="fill: #ffa500; fill-opacity: 0.8"/>
   </g>
   <g id="FillBetweenPolyCollection_3">
    <path d="M 431.285 226.519636 
L 356.425 226.519636 
L 356.47165 226.173766 
L 356.611278 225.827895 
L 356.84284 225.482024 
L 357.164614 225.136153 
L 357.574216 224.790282 
L 358.068633 224.444411 
L 358.644261 224.098541 
L 359.296943 223.75267 
L 360.022025 223.406799 
L 360.814406 223.060928 
L 361.668603 222.715057 
L 362.578806 222.369186 
L 363.538953 222.023316 
L 364.542786 221.677445 
L 365.583926 221.331574 
L 366.655936 220.985703 
L 367.752386 220.639832 
L 368.866914 220.293961 
L 369.993286 219.948091 
L 371.125449 219.60222 
L 372.257585 219.256349 
L 373.384149 218.910478 
L 374.499913 218.564607 
L 375.599999 218.218736 
L 376.679902 217.872866 
L 377.735513 217.526995 
L 378.763137 217.181124 
L 379.759493 216.835253 
L 380.721724 216.489382 
L 381.647393 216.143511 
L 382.534471 215.797641 
L 383.381328 215.45177 
L 384.186716 215.105899 
L 384.949747 214.760028 
L 385.669871 214.414157 
L 386.34685 214.068287 
L 386.980731 213.722416 
L 387.571814 213.376545 
L 388.120625 213.030674 
L 388.627886 212.684803 
L 389.094482 212.338932 
L 389.521435 211.993062 
L 389.909875 211.647191 
L 390.261013 211.30132 
L 390.576114 210.955449 
L 390.856479 210.609578 
L 391.103416 210.263707 
L 391.318232 209.917837 
L 391.502206 209.571966 
L 391.656585 209.226095 
L 391.782565 208.880224 
L 391.88129 208.534353 
L 391.953839 208.188482 
L 392.001227 207.842612 
L 392.024405 207.496741 
L 392.024255 207.15087 
L 392.001599 206.804999 
L 391.957201 206.459128 
L 391.891775 206.113257 
L 391.805991 205.767387 
L 391.700487 205.421516 
L 391.575877 205.075645 
L 391.432762 204.729774 
L 391.271744 204.383903 
L 391.093435 204.038032 
L 390.89847 203.692162 
L 390.687521 203.346291 
L 390.461303 203.00042 
L 390.220588 202.654549 
L 389.966217 202.308678 
L 389.699101 201.962807 
L 389.420237 201.616937 
L 389.130707 201.271066 
L 388.831685 200.925195 
L 388.52444 200.579324 
L 388.210335 200.233453 
L 387.890825 199.887582 
L 387.567455 199.541712 
L 387.241852 199.195841 
L 386.915723 198.84997 
L 386.590838 198.504099 
L 386.269023 198.158228 
L 385.95215 197.812358 
L 385.642115 197.466487 
L 385.340828 197.120616 
L 385.050195 196.774745 
L 384.772097 196.428874 
L 384.508377 196.083003 
L 384.260818 195.737133 
L 384.031122 195.391262 
L 383.820898 195.045391 
L 383.631638 194.69952 
L 383.464703 194.353649 
L 383.32131 194.007778 
L 383.202511 193.661908 
L 383.109186 193.316037 
L 383.042033 192.970166 
L 383.001555 192.624295 
L 382.988058 192.278424 
L 404.721942 192.278424 
L 404.721942 192.278424 
L 404.708445 192.624295 
L 404.667967 192.970166 
L 404.600814 193.316037 
L 404.507489 193.661908 
L 404.38869 194.007778 
L 404.245297 194.353649 
L 404.078362 194.69952 
L 403.889102 195.045391 
L 403.678878 195.391262 
L 403.449182 195.737133 
L 403.201623 196.083003 
L 402.937903 196.428874 
L 402.659805 196.774745 
L 402.369172 197.120616 
L 402.067885 197.466487 
L 401.75785 197.812358 
L 401.440977 198.158228 
L 401.119162 198.504099 
L 400.794277 198.84997 
L 400.468148 199.195841 
L 400.142545 199.541712 
L 399.819175 199.887582 
L 399.499665 200.233453 
L 399.18556 200.579324 
L 398.878315 200.925195 
L 398.579293 201.271066 
L 398.289763 201.616937 
L 398.010899 201.962807 
L 397.743783 202.308678 
L 397.489412 202.654549 
L 397.248697 203.00042 
L 397.022479 203.346291 
L 396.81153 203.692162 
L 396.616565 204.038032 
L 396.438256 204.383903 
L 396.277238 204.729774 
L 396.134123 205.075645 
L 396.009513 205.421516 
L 395.904009 205.767387 
L 395.818225 206.113257 
L 395.752799 206.459128 
L 395.708401 206.804999 
L 395.685745 207.15087 
L 395.685595 207.496741 
L 395.708773 207.842612 
L 395.756161 208.188482 
L 395.82871 208.534353 
L 395.927435 208.880224 
L 396.053415 209.226095 
L 396.207794 209.571966 
L 396.391768 209.917837 
L 396.606584 210.263707 
L 396.853521 210.609578 
L 397.133886 210.955449 
L 397.448987 211.30132 
L 397.800125 211.647191 
L 398.188565 211.993062 
L 398.615518 212.338932 
L 399.082114 212.684803 
L 399.589375 213.030674 
L 400.138186 213.376545 
L 400.729269 213.722416 
L 401.36315 214.068287 
L 402.040129 214.414157 
L 402.760253 214.760028 
L 403.523284 215.105899 
L 404.328672 215.45177 
L 405.175529 215.797641 
L 406.062607 216.143511 
L 406.988276 216.489382 
L 407.950507 216.835253 
L 408.946863 217.181124 
L 409.974487 217.526995 
L 411.030098 217.872866 
L 412.110001 218.218736 
L 413.210087 218.564607 
L 414.325851 218.910478 
L 415.452415 219.256349 
L 416.584551 219.60222 
L 417.716714 219.948091 
L 418.843086 220.293961 
L 419.957614 220.639832 
L 421.054064 220.985703 
L 422.126074 221.331574 
L 423.167214 221.677445 
L 424.171047 222.023316 
L 425.131194 222.369186 
L 426.041397 222.715057 
L 426.895594 223.060928 
L 427.687975 223.406799 
L 428.413057 223.75267 
L 429.065739 224.098541 
L 429.641367 224.444411 
L 430.135784 224.790282 
L 430.545386 225.136153 
L 430.86716 225.482024 
L 431.098722 225.827895 
L 431.23835 226.173766 
L 431.285 226.519636 
z
" clip-path="url(#p97731a02b7)" style="fill: #ffa500; fill-opacity: 0.8"/>
   </g>
   <g id="matplotlib.axis_1">
    <g id="xtick_1">
     <g id="line2d_1">
      <defs>
       <path id="mf96039a339" d="M 0 0 
L 0 3.5 
" style="stroke: #000000; stroke-width: 0.8"/>
      </defs>
      <g>
       <use xlink:href="#mf96039a339" x="94.415" y="236.792" style="stroke: #000000; stroke-width: 0.8"/>
      </g>
     </g>
     <g id="text_1">
      <!-- openai -->
      <g transform="translate(77.482969 251.390438) scale(0.1 -0.1)">
       <defs>
        <path id="DejaVuSans-6f" d="M 1959 3097 
Q 1497 3097 1228 2736 
Q 959 2375 959 1747 
Q 959 1119 1226 758 
Q 1494 397 1959 397 
Q 2419 397 2687 759 
Q 2956 1122 2956 1747 
Q 2956 2369 2687 2733 
Q 2419 3097 1959 3097 
z
M 1959 3584 
Q 2709 3584 3137 3096 
Q 3566 2609 3566 1747 
Q 3566 888 3137 398 
Q 2709 -91 1959 -91 
Q 1206 -91 779 398 
Q 353 888 353 1747 
Q 353 2609 779 3096 
Q 1206 3584 1959 3584 
z
" transform="scale(0.015625)"/>
        <path id="DejaVuSans-70" d="M 1159 525 
L 1159 -1331 
L 581 -1331 
L 581 3500 
L 1159 3500 
L 1159 2969 
Q 1341 3281 1617 3432 
Q 1894 3584 2278 3584 
Q 2916 3584 3314 3078 
Q 3713 2572 3713 1747 
Q 3713 922 3314 415 
Q 2916 -91 2278 -91 
Q 1894 -91 1617 61 
Q 1341 213 1159 525 
z
M 3116 1747 
Q 3116 2381 2855 2742 
Q 2594 3103 2138 3103 
Q 1681 3103 1420 2742 
Q 1159 2381 1159 1747 
Q 1159 1113 1420 752 
Q 1681 391 2138 391 
Q 2594 391 2855 752 
Q 3116 1113 3116 1747 
z
" transform="scale(0.015625)"/>
        <path id="DejaVuSans-65" d="M 3597 1894 
L 3597 1613 
L 953 1613 
Q 991 1019 1311 708 
Q 1631 397 2203 397 
Q 2534 397 2845 478 
Q 3156 559 3463 722 
L 3463 178 
Q 3153 47 2828 -22 
Q 2503 -91 2169 -91 
Q 1331 -91 842 396 
Q 353 884 353 1716 
Q 353 2575 817 3079 
Q 1281 3584 2069 3584 
Q 2775 3584 3186 3129 
Q 3597 2675 3597 1894 
z
M 3022 2063 
Q 3016 2534 2758 2815 
Q 2500 3097 2075 3097 
Q 1594 3097 1305 2825 
Q 1016 2553 972 2059 
L 3022 2063 
z
" transform="scale(0.015625)"/>
        <path id="DejaVuSans-6e" d="M 3513 2113 
L 3513 0 
L 2938 0 
L 2938 2094 
Q 2938 2591 2744 2837 
Q 2550 3084 2163 3084 
Q 1697 3084 1428 2787 
Q 1159 2491 1159 1978 
L 1159 0 
L 581 0 
L 581 3500 
L 1159 3500 
L 1159 2956 
Q 1366 3272 1645 3428 
Q 1925 3584 2291 3584 
Q 2894 3584 3203 3211 
Q 3513 2838 3513 2113 
z
" transform="scale(0.015625)"/>
        <path id="DejaVuSans-61" d="M 2194 1759 
Q 1497 1759 1228 1600 
Q 959 1441 959 1056 
Q 959 750 1161 570 
Q 1363 391 1709 391 
Q 2188 391 2477 730 
Q 2766 1069 2766 1631 
L 2766 1759 
L 2194 1759 
z
M 3341 1997 
L 3341 0 
L 2766 0 
L 2766 531 
Q 2569 213 2275 61 
Q 1981 -91 1556 -91 
Q 1019 -91 701 211 
Q 384 513 384 1019 
Q 384 1609 779 1909 
Q 1175 2209 1959 2209 
L 2766 2209 
L 2766 2266 
Q 2766 2663 2505 2880 
Q 2244 3097 1772 3097 
Q 1472 3097 1187 3025 
Q 903 2953 641 2809 
L 641 3341 
Q 956 3463 1253 3523 
Q 1550 3584 1831 3584 
Q 2591 3584 2966 3190 
Q 3341 2797 3341 1997 
z
" transform="scale(0.015625)"/>
        <path id="DejaVuSans-69" d="M 603 3500 
L 1178 3500 
L 1178 0 
L 603 0 
L 603 3500 
z
M 603 4863 
L 1178 4863 
L 1178 4134 
L 603 4134 
L 603 4863 
z
" transform="scale(0.015625)"/>
       </defs>
       <use xlink:href="#DejaVuSans-6f"/>
       <use xlink:href="#DejaVuSans-70" transform="translate(61.181641 0)"/>
       <use xlink:href="#DejaVuSans-65" transform="translate(124.658203 0)"/>
       <use xlink:href="#DejaVuSans-6e" transform="translate(186.181641 0)"/>
       <use xlink:href="#DejaVuSans-61" transform="translate(249.560547 0)"/>
       <use xlink:href="#DejaVuSans-69" transform="translate(310.839844 0)"/>
      </g>
      <!-- gpt-4.1-2025-04-14 -->
      <g transform="translate(45.489219 262.58825) scale(0.1 -0.1)">
       <defs>
        <path id="DejaVuSans-67" d="M 2906 1791 
Q 2906 2416 2648 2759 
Q 2391 3103 1925 3103 
Q 1463 3103 1205 2759 
Q 947 2416 947 1791 
Q 947 1169 1205 825 
Q 1463 481 1925 481 
Q 2391 481 2648 825 
Q 2906 1169 2906 1791 
z
M 3481 434 
Q 3481 -459 3084 -895 
Q 2688 -1331 1869 -1331 
Q 1566 -1331 1297 -1286 
Q 1028 -1241 775 -1147 
L 775 -588 
Q 1028 -725 1275 -790 
Q 1522 -856 1778 -856 
Q 2344 -856 2625 -561 
Q 2906 -266 2906 331 
L 2906 616 
Q 2728 306 2450 153 
Q 2172 0 1784 0 
Q 1141 0 747 490 
Q 353 981 353 1791 
Q 353 2603 747 3093 
Q 1141 3584 1784 3584 
Q 2172 3584 2450 3431 
Q 2728 3278 2906 2969 
L 2906 3500 
L 3481 3500 
L 3481 434 
z
" transform="scale(0.015625)"/>
        <path id="DejaVuSans-74" d="M 1172 4494 
L 1172 3500 
L 2356 3500 
L 2356 3053 
L 1172 3053 
L 1172 1153 
Q 1172 725 1289 603 
Q 1406 481 1766 481 
L 2356 481 
L 2356 0 
L 1766 0 
Q 1100 0 847 248 
Q 594 497 594 1153 
L 594 3053 
L 172 3053 
L 172 3500 
L 594 3500 
L 594 4494 
L 1172 4494 
z
" transform="scale(0.015625)"/>
        <path id="DejaVuSans-2d" d="M 313 2009 
L 1997 2009 
L 1997 1497 
L 313 1497 
L 313 2009 
z
" transform="scale(0.015625)"/>
        <path id="DejaVuSans-34" d="M 2419 4116 
L 825 1625 
L 2419 1625 
L 2419 4116 
z
M 2253 4666 
L 3047 4666 
L 3047 1625 
L 3713 1625 
L 3713 1100 
L 3047 1100 
L 3047 0 
L 2419 0 
L 2419 1100 
L 313 1100 
L 313 1709 
L 2253 4666 
z
" transform="scale(0.015625)"/>
        <path id="DejaVuSans-2e" d="M 684 794 
L 1344 794 
L 1344 0 
L 684 0 
L 684 794 
z
" transform="scale(0.015625)"/>
        <path id="DejaVuSans-31" d="M 794 531 
L 1825 531 
L 1825 4091 
L 703 3866 
L 703 4441 
L 1819 4666 
L 2450 4666 
L 2450 531 
L 3481 531 
L 3481 0 
L 794 0 
L 794 531 
z
" transform="scale(0.015625)"/>
        <path id="DejaVuSans-32" d="M 1228 531 
L 3431 531 
L 3431 0 
L 469 0 
L 469 531 
Q 828 903 1448 1529 
Q 2069 2156 2228 2338 
Q 2531 2678 2651 2914 
Q 2772 3150 2772 3378 
Q 2772 3750 2511 3984 
Q 2250 4219 1831 4219 
Q 1534 4219 1204 4116 
Q 875 4013 500 3803 
L 500 4441 
Q 881 4594 1212 4672 
Q 1544 4750 1819 4750 
Q 2544 4750 2975 4387 
Q 3406 4025 3406 3419 
Q 3406 3131 3298 2873 
Q 3191 2616 2906 2266 
Q 2828 2175 2409 1742 
Q 1991 1309 1228 531 
z
" transform="scale(0.015625)"/>
        <path id="DejaVuSans-30" d="M 2034 4250 
Q 1547 4250 1301 3770 
Q 1056 3291 1056 2328 
Q 1056 1369 1301 889 
Q 1547 409 2034 409 
Q 2525 409 2770 889 
Q 3016 1369 3016 2328 
Q 3016 3291 2770 3770 
Q 2525 4250 2034 4250 
z
M 2034 4750 
Q 2819 4750 3233 4129 
Q 3647 3509 3647 2328 
Q 3647 1150 3233 529 
Q 2819 -91 2034 -91 
Q 1250 -91 836 529 
Q 422 1150 422 2328 
Q 422 3509 836 4129 
Q 1250 4750 2034 4750 
z
" transform="scale(0.015625)"/>
        <path id="DejaVuSans-35" d="M 691 4666 
L 3169 4666 
L 3169 4134 
L 1269 4134 
L 1269 2991 
Q 1406 3038 1543 3061 
Q 1681 3084 1819 3084 
Q 2600 3084 3056 2656 
Q 3513 2228 3513 1497 
Q 3513 744 3044 326 
Q 2575 -91 1722 -91 
Q 1428 -91 1123 -41 
Q 819 9 494 109 
L 494 744 
Q 775 591 1075 516 
Q 1375 441 1709 441 
Q 2250 441 2565 725 
Q 2881 1009 2881 1497 
Q 2881 1984 2565 2268 
Q 2250 2553 1709 2553 
Q 1456 2553 1204 2497 
Q 953 2441 691 2322 
L 691 4666 
z
" transform="scale(0.015625)"/>
       </defs>
       <use xlink:href="#DejaVuSans-67"/>
       <use xlink:href="#DejaVuSans-70" transform="translate(63.476562 0)"/>
       <use xlink:href="#DejaVuSans-74" transform="translate(126.953125 0)"/>
       <use xlink:href="#DejaVuSans-2d" transform="translate(166.162109 0)"/>
       <use xlink:href="#DejaVuSans-34" transform="translate(202.246094 0)"/>
       <use xlink:href="#DejaVuSans-2e" transform="translate(265.869141 0)"/>
       <use xlink:href="#DejaVuSans-31" transform="translate(297.65625 0)"/>
       <use xlink:href="#DejaVuSans-2d" transform="translate(361.279297 0)"/>
       <use xlink:href="#DejaVuSans-32" transform="translate(397.363281 0)"/>
       <use xlink:href="#DejaVuSans-30" transform="translate(460.986328 0)"/>
       <use xlink:href="#DejaVuSans-32" transform="translate(524.609375 0)"/>
       <use xlink:href="#DejaVuSans-35" transform="translate(588.232422 0)"/>
       <use xlink:href="#DejaVuSans-2d" transform="translate(651.855469 0)"/>
       <use xlink:href="#DejaVuSans-30" transform="translate(687.939453 0)"/>
       <use xlink:href="#DejaVuSans-34" transform="translate(751.5625 0)"/>
       <use xlink:href="#DejaVuSans-2d" transform="translate(815.185547 0)"/>
       <use xlink:href="#DejaVuSans-31" transform="translate(851.269531 0)"/>
       <use xlink:href="#DejaVuSans-34" transform="translate(914.892578 0)"/>
      </g>
     </g>
    </g>
    <g id="xtick_2">
     <g id="line2d_2">
      <g>
       <use xlink:href="#mf96039a339" x="244.135" y="236.792" style="stroke: #000000; stroke-width: 0.8"/>
      </g>
     </g>
     <g id="text_2">
      <!-- google -->
      <g transform="translate(227.202187 251.390438) scale(0.1 -0.1)">
       <defs>
        <path id="DejaVuSans-6c" d="M 603 4863 
L 1178 4863 
L 1178 0 
L 603 0 
L 603 4863 
z
" transform="scale(0.015625)"/>
       </defs>
       <use xlink:href="#DejaVuSans-67"/>
       <use xlink:href="#DejaVuSans-6f" transform="translate(63.476562 0)"/>
       <use xlink:href="#DejaVuSans-6f" transform="translate(124.658203 0)"/>
       <use xlink:href="#DejaVuSans-67" transform="translate(185.839844 0)"/>
       <use xlink:href="#DejaVuSans-6c" transform="translate(249.316406 0)"/>
       <use xlink:href="#DejaVuSans-65" transform="translate(277.099609 0)"/>
      </g>
      <!-- gemini-2.5-flash -->
      <g transform="translate(203.520938 262.58825) scale(0.1 -0.1)">
       <defs>
        <path id="DejaVuSans-6d" d="M 3328 2828 
Q 3544 3216 3844 3400 
Q 4144 3584 4550 3584 
Q 5097 3584 5394 3201 
Q 5691 2819 5691 2113 
L 5691 0 
L 5113 0 
L 5113 2094 
Q 5113 2597 4934 2840 
Q 4756 3084 4391 3084 
Q 3944 3084 3684 2787 
Q 3425 2491 3425 1978 
L 3425 0 
L 2847 0 
L 2847 2094 
Q 2847 2600 2669 2842 
Q 2491 3084 2119 3084 
Q 1678 3084 1418 2786 
Q 1159 2488 1159 1978 
L 1159 0 
L 581 0 
L 581 3500 
L 1159 3500 
L 1159 2956 
Q 1356 3278 1631 3431 
Q 1906 3584 2284 3584 
Q 2666 3584 2933 3390 
Q 3200 3197 3328 2828 
z
" transform="scale(0.015625)"/>
        <path id="DejaVuSans-66" d="M 2375 4863 
L 2375 4384 
L 1825 4384 
Q 1516 4384 1395 4259 
Q 1275 4134 1275 3809 
L 1275 3500 
L 2222 3500 
L 2222 3053 
L 1275 3053 
L 1275 0 
L 697 0 
L 697 3053 
L 147 3053 
L 147 3500 
L 697 3500 
L 697 3744 
Q 697 4328 969 4595 
Q 1241 4863 1831 4863 
L 2375 4863 
z
" transform="scale(0.015625)"/>
        <path id="DejaVuSans-73" d="M 2834 3397 
L 2834 2853 
Q 2591 2978 2328 3040 
Q 2066 3103 1784 3103 
Q 1356 3103 1142 2972 
Q 928 2841 928 2578 
Q 928 2378 1081 2264 
Q 1234 2150 1697 2047 
L 1894 2003 
Q 2506 1872 2764 1633 
Q 3022 1394 3022 966 
Q 3022 478 2636 193 
Q 2250 -91 1575 -91 
Q 1294 -91 989 -36 
Q 684 19 347 128 
L 347 722 
Q 666 556 975 473 
Q 1284 391 1588 391 
Q 1994 391 2212 530 
Q 2431 669 2431 922 
Q 2431 1156 2273 1281 
Q 2116 1406 1581 1522 
L 1381 1569 
Q 847 1681 609 1914 
Q 372 2147 372 2553 
Q 372 3047 722 3315 
Q 1072 3584 1716 3584 
Q 2034 3584 2315 3537 
Q 2597 3491 2834 3397 
z
" transform="scale(0.015625)"/>
        <path id="DejaVuSans-68" d="M 3513 2113 
L 3513 0 
L 2938 0 
L 2938 2094 
Q 2938 2591 2744 2837 
Q 2550 3084 2163 3084 
Q 1697 3084 1428 2787 
Q 1159 2491 1159 1978 
L 1159 0 
L 581 0 
L 581 4863 
L 1159 4863 
L 1159 2956 
Q 1366 3272 1645 3428 
Q 1925 3584 2291 3584 
Q 2894 3584 3203 3211 
Q 3513 2838 3513 2113 
z
" transform="scale(0.015625)"/>
       </defs>
       <use xlink:href="#DejaVuSans-67"/>
       <use xlink:href="#DejaVuSans-65" transform="translate(63.476562 0)"/>
       <use xlink:href="#DejaVuSans-6d" transform="translate(125 0)"/>
       <use xlink:href="#DejaVuSans-69" transform="translate(222.412109 0)"/>
       <use xlink:href="#DejaVuSans-6e" transform="translate(250.195312 0)"/>
       <use xlink:href="#DejaVuSans-69" transform="translate(313.574219 0)"/>
       <use xlink:href="#DejaVuSans-2d" transform="translate(341.357422 0)"/>
       <use xlink:href="#DejaVuSans-32" transform="translate(377.441406 0)"/>
       <use xlink:href="#DejaVuSans-2e" transform="translate(441.064453 0)"/>
       <use xlink:href="#DejaVuSans-35" transform="translate(472.851562 0)"/>
       <use xlink:href="#DejaVuSans-2d" transform="translate(536.474609 0)"/>
       <use xlink:href="#DejaVuSans-66" transform="translate(572.558594 0)"/>
       <use xlink:href="#DejaVuSans-6c" transform="translate(607.763672 0)"/>
       <use xlink:href="#DejaVuSans-61" transform="translate(635.546875 0)"/>
       <use xlink:href="#DejaVuSans-73" transform="translate(696.826172 0)"/>
       <use xlink:href="#DejaVuSans-68" transform="translate(748.925781 0)"/>
      </g>
      <!-- preview-05-20 -->
      <g transform="translate(208.094375 273.786063) scale(0.1 -0.1)">
       <defs>
        <path id="DejaVuSans-72" d="M 2631 2963 
Q 2534 3019 2420 3045 
Q 2306 3072 2169 3072 
Q 1681 3072 1420 2755 
Q 1159 2438 1159 1844 
L 1159 0 
L 581 0 
L 581 3500 
L 1159 3500 
L 1159 2956 
Q 1341 3275 1631 3429 
Q 1922 3584 2338 3584 
Q 2397 3584 2469 3576 
Q 2541 3569 2628 3553 
L 2631 2963 
z
" transform="scale(0.015625)"/>
        <path id="DejaVuSans-76" d="M 191 3500 
L 800 3500 
L 1894 563 
L 2988 3500 
L 3597 3500 
L 2284 0 
L 1503 0 
L 191 3500 
z
" transform="scale(0.015625)"/>
        <path id="DejaVuSans-77" d="M 269 3500 
L 844 3500 
L 1563 769 
L 2278 3500 
L 2956 3500 
L 3675 769 
L 4391 3500 
L 4966 3500 
L 4050 0 
L 3372 0 
L 2619 2869 
L 1863 0 
L 1184 0 
L 269 3500 
z
" transform="scale(0.015625)"/>
       </defs>
       <use xlink:href="#DejaVuSans-70"/>
       <use xlink:href="#DejaVuSans-72" transform="translate(63.476562 0)"/>
       <use xlink:href="#DejaVuSans-65" transform="translate(102.339844 0)"/>
       <use xlink:href="#DejaVuSans-76" transform="translate(163.863281 0)"/>
       <use xlink:href="#DejaVuSans-69" transform="translate(223.042969 0)"/>
       <use xlink:href="#DejaVuSans-65" transform="translate(250.826172 0)"/>
       <use xlink:href="#DejaVuSans-77" transform="translate(312.349609 0)"/>
       <use xlink:href="#DejaVuSans-2d" transform="translate(394.136719 0)"/>
       <use xlink:href="#DejaVuSans-30" transform="translate(430.220703 0)"/>
       <use xlink:href="#DejaVuSans-35" transform="translate(493.84375 0)"/>
       <use xlink:href="#DejaVuSans-2d" transform="translate(557.466797 0)"/>
       <use xlink:href="#DejaVuSans-32" transform="translate(593.550781 0)"/>
       <use xlink:href="#DejaVuSans-30" transform="translate(657.173828 0)"/>
      </g>
     </g>
    </g>
    <g id="xtick_3">
     <g id="line2d_3">
      <g>
       <use xlink:href="#mf96039a339" x="393.855" y="236.792" style="stroke: #000000; stroke-width: 0.8"/>
      </g>
     </g>
     <g id="text_3">
      <!-- meta -->
      <g transform="translate(380.883906 251.390438) scale(0.1 -0.1)">
       <use xlink:href="#DejaVuSans-6d"/>
       <use xlink:href="#DejaVuSans-65" transform="translate(97.412109 0)"/>
       <use xlink:href="#DejaVuSans-74" transform="translate(158.935547 0)"/>
       <use xlink:href="#DejaVuSans-61" transform="translate(198.144531 0)"/>
      </g>
      <!-- llama-4-maverick -->
      <g transform="translate(350.23 262.58825) scale(0.1 -0.1)">
       <defs>
        <path id="DejaVuSans-63" d="M 3122 3366 
L 3122 2828 
Q 2878 2963 2633 3030 
Q 2388 3097 2138 3097 
Q 1578 3097 1268 2742 
Q 959 2388 959 1747 
Q 959 1106 1268 751 
Q 1578 397 2138 397 
Q 2388 397 2633 464 
Q 2878 531 3122 666 
L 3122 134 
Q 2881 22 2623 -34 
Q 2366 -91 2075 -91 
Q 1284 -91 818 406 
Q 353 903 353 1747 
Q 353 2603 823 3093 
Q 1294 3584 2113 3584 
Q 2378 3584 2631 3529 
Q 2884 3475 3122 3366 
z
" transform="scale(0.015625)"/>
        <path id="DejaVuSans-6b" d="M 581 4863 
L 1159 4863 
L 1159 1991 
L 2875 3500 
L 3609 3500 
L 1753 1863 
L 3688 0 
L 2938 0 
L 1159 1709 
L 1159 0 
L 581 0 
L 581 4863 
z
" transform="scale(0.015625)"/>
       </defs>
       <use xlink:href="#DejaVuSans-6c"/>
       <use xlink:href="#DejaVuSans-6c" transform="translate(27.783203 0)"/>
       <use xlink:href="#DejaVuSans-61" transform="translate(55.566406 0)"/>
       <use xlink:href="#DejaVuSans-6d" transform="translate(116.845703 0)"/>
       <use xlink:href="#DejaVuSans-61" transform="translate(214.257812 0)"/>
       <use xlink:href="#DejaVuSans-2d" transform="translate(275.537109 0)"/>
       <use xlink:href="#DejaVuSans-34" transform="translate(311.621094 0)"/>
       <use xlink:href="#DejaVuSans-2d" transform="translate(375.244141 0)"/>
       <use xlink:href="#DejaVuSans-6d" transform="translate(411.328125 0)"/>
       <use xlink:href="#DejaVuSans-61" transform="translate(508.740234 0)"/>
       <use xlink:href="#DejaVuSans-76" transform="translate(570.019531 0)"/>
       <use xlink:href="#DejaVuSans-65" transform="translate(629.199219 0)"/>
       <use xlink:href="#DejaVuSans-72" transform="translate(690.722656 0)"/>
       <use xlink:href="#DejaVuSans-69" transform="translate(731.835938 0)"/>
       <use xlink:href="#DejaVuSans-63" transform="translate(759.619141 0)"/>
       <use xlink:href="#DejaVuSans-6b" transform="translate(814.599609 0)"/>
      </g>
      <!-- 17b-128e-instruct -->
      <g transform="translate(349.033906 273.786063) scale(0.1 -0.1)">
       <defs>
        <path id="DejaVuSans-37" d="M 525 4666 
L 3525 4666 
L 3525 4397 
L 1831 0 
L 1172 0 
L 2766 4134 
L 525 4134 
L 525 4666 
z
" transform="scale(0.015625)"/>
        <path id="DejaVuSans-62" d="M 3116 1747 
Q 3116 2381 2855 2742 
Q 2594 3103 2138 3103 
Q 1681 3103 1420 2742 
Q 1159 2381 1159 1747 
Q 1159 1113 1420 752 
Q 1681 391 2138 391 
Q 2594 391 2855 752 
Q 3116 1113 3116 1747 
z
M 1159 2969 
Q 1341 3281 1617 3432 
Q 1894 3584 2278 3584 
Q 2916 3584 3314 3078 
Q 3713 2572 3713 1747 
Q 3713 922 3314 415 
Q 2916 -91 2278 -91 
Q 1894 -91 1617 61 
Q 1341 213 1159 525 
L 1159 0 
L 581 0 
L 581 4863 
L 1159 4863 
L 1159 2969 
z
" transform="scale(0.015625)"/>
        <path id="DejaVuSans-38" d="M 2034 2216 
Q 1584 2216 1326 1975 
Q 1069 1734 1069 1313 
Q 1069 891 1326 650 
Q 1584 409 2034 409 
Q 2484 409 2743 651 
Q 3003 894 3003 1313 
Q 3003 1734 2745 1975 
Q 2488 2216 2034 2216 
z
M 1403 2484 
Q 997 2584 770 2862 
Q 544 3141 544 3541 
Q 544 4100 942 4425 
Q 1341 4750 2034 4750 
Q 2731 4750 3128 4425 
Q 3525 4100 3525 3541 
Q 3525 3141 3298 2862 
Q 3072 2584 2669 2484 
Q 3125 2378 3379 2068 
Q 3634 1759 3634 1313 
Q 3634 634 3220 271 
Q 2806 -91 2034 -91 
Q 1263 -91 848 271 
Q 434 634 434 1313 
Q 434 1759 690 2068 
Q 947 2378 1403 2484 
z
M 1172 3481 
Q 1172 3119 1398 2916 
Q 1625 2713 2034 2713 
Q 2441 2713 2670 2916 
Q 2900 3119 2900 3481 
Q 2900 3844 2670 4047 
Q 2441 4250 2034 4250 
Q 1625 4250 1398 4047 
Q 1172 3844 1172 3481 
z
" transform="scale(0.015625)"/>
        <path id="DejaVuSans-75" d="M 544 1381 
L 544 3500 
L 1119 3500 
L 1119 1403 
Q 1119 906 1312 657 
Q 1506 409 1894 409 
Q 2359 409 2629 706 
Q 2900 1003 2900 1516 
L 2900 3500 
L 3475 3500 
L 3475 0 
L 2900 0 
L 2900 538 
Q 2691 219 2414 64 
Q 2138 -91 1772 -91 
Q 1169 -91 856 284 
Q 544 659 544 1381 
z
M 1991 3584 
L 1991 3584 
z
" transform="scale(0.015625)"/>
       </defs>
       <use xlink:href="#DejaVuSans-31"/>
       <use xlink:href="#DejaVuSans-37" transform="translate(63.623047 0)"/>
       <use xlink:href="#DejaVuSans-62" transform="translate(127.246094 0)"/>
       <use xlink:href="#DejaVuSans-2d" transform="translate(190.722656 0)"/>
       <use xlink:href="#DejaVuSans-31" transform="translate(226.806641 0)"/>
       <use xlink:href="#DejaVuSans-32" transform="translate(290.429688 0)"/>
       <use xlink:href="#DejaVuSans-38" transform="translate(354.052734 0)"/>
       <use xlink:href="#DejaVuSans-65" transform="translate(417.675781 0)"/>
       <use xlink:href="#DejaVuSans-2d" transform="translate(479.199219 0)"/>
       <use xlink:href="#DejaVuSans-69" transform="translate(515.283203 0)"/>
       <use xlink:href="#DejaVuSans-6e" transform="translate(543.066406 0)"/>
       <use xlink:href="#DejaVuSans-73" transform="translate(606.445312 0)"/>
       <use xlink:href="#DejaVuSans-74" transform="translate(658.544922 0)"/>
       <use xlink:href="#DejaVuSans-72" transform="translate(697.753906 0)"/>
       <use xlink:href="#DejaVuSans-75" transform="translate(738.867188 0)"/>
       <use xlink:href="#DejaVuSans-63" transform="translate(802.246094 0)"/>
       <use xlink:href="#DejaVuSans-74" transform="translate(857.226562 0)"/>
      </g>
     </g>
    </g>
   </g>
   <g id="matplotlib.axis_2">
    <g id="ytick_1">
     <g id="line2d_4">
      <defs>
       <path id="ma9d57894a3" d="M 0 0 
L -3.5 0 
" style="stroke: #000000; stroke-width: 0.8"/>
      </defs>
      <g>
       <use xlink:href="#ma9d57894a3" x="38.27" y="226.519636" style="stroke: #000000; stroke-width: 0.8"/>
      </g>
     </g>
     <g id="text_4">
      <!-- 0 -->
      <g transform="translate(24.9075 230.318855) scale(0.1 -0.1)">
       <use xlink:href="#DejaVuSans-30"/>
      </g>
     </g>
    </g>
    <g id="ytick_2">
     <g id="line2d_5">
      <g>
       <use xlink:href="#ma9d57894a3" x="38.27" y="192.278424" style="stroke: #000000; stroke-width: 0.8"/>
      </g>
     </g>
     <g id="text_5">
      <!-- 1 -->
      <g transform="translate(24.9075 196.077643) scale(0.1 -0.1)">
       <use xlink:href="#DejaVuSans-31"/>
      </g>
     </g>
    </g>
    <g id="ytick_3">
     <g id="line2d_6">
      <g>
       <use xlink:href="#ma9d57894a3" x="38.27" y="158.037212" style="stroke: #000000; stroke-width: 0.8"/>
      </g>
     </g>
     <g id="text_6">
      <!-- 2 -->
      <g transform="translate(24.9075 161.836431) scale(0.1 -0.1)">
       <use xlink:href="#DejaVuSans-32"/>
      </g>
     </g>
    </g>
    <g id="ytick_4">
     <g id="line2d_7">
      <g>
       <use xlink:href="#ma9d57894a3" x="38.27" y="123.796" style="stroke: #000000; stroke-width: 0.8"/>
      </g>
     </g>
     <g id="text_7">
      <!-- 3 -->
      <g transform="translate(24.9075 127.595219) scale(0.1 -0.1)">
       <defs>
        <path id="DejaVuSans-33" d="M 2597 2516 
Q 3050 2419 3304 2112 
Q 3559 1806 3559 1356 
Q 3559 666 3084 287 
Q 2609 -91 1734 -91 
Q 1441 -91 1130 -33 
Q 819 25 488 141 
L 488 750 
Q 750 597 1062 519 
Q 1375 441 1716 441 
Q 2309 441 2620 675 
Q 2931 909 2931 1356 
Q 2931 1769 2642 2001 
Q 2353 2234 1838 2234 
L 1294 2234 
L 1294 2753 
L 1863 2753 
Q 2328 2753 2575 2939 
Q 2822 3125 2822 3475 
Q 2822 3834 2567 4026 
Q 2313 4219 1838 4219 
Q 1578 4219 1281 4162 
Q 984 4106 628 3988 
L 628 4550 
Q 988 4650 1302 4700 
Q 1616 4750 1894 4750 
Q 2613 4750 3031 4423 
Q 3450 4097 3450 3541 
Q 3450 3153 3228 2886 
Q 3006 2619 2597 2516 
z
" transform="scale(0.015625)"/>
       </defs>
       <use xlink:href="#DejaVuSans-33"/>
      </g>
     </g>
    </g>
    <g id="ytick_5">
     <g id="line2d_8">
      <g>
       <use xlink:href="#ma9d57894a3" x="38.27" y="89.554788" style="stroke: #000000; stroke-width: 0.8"/>
      </g>
     </g>
     <g id="text_8">
      <!-- 4 -->
      <g transform="translate(24.9075 93.354007) scale(0.1 -0.1)">
       <use xlink:href="#DejaVuSans-34"/>
      </g>
     </g>
    </g>
    <g id="ytick_6">
     <g id="line2d_9">
      <g>
       <use xlink:href="#ma9d57894a3" x="38.27" y="55.313576" style="stroke: #000000; stroke-width: 0.8"/>
      </g>
     </g>
     <g id="text_9">
      <!-- 5 -->
      <g transform="translate(24.9075 59.112795) scale(0.1 -0.1)">
       <use xlink:href="#DejaVuSans-35"/>
      </g>
     </g>
    </g>
    <g id="ytick_7">
     <g id="line2d_10">
      <g>
       <use xlink:href="#ma9d57894a3" x="38.27" y="21.072364" style="stroke: #000000; stroke-width: 0.8"/>
      </g>
     </g>
     <g id="text_10">
      <!-- 6 -->
      <g transform="translate(24.9075 24.871582) scale(0.1 -0.1)">
       <defs>
        <path id="DejaVuSans-36" d="M 2113 2584 
Q 1688 2584 1439 2293 
Q 1191 2003 1191 1497 
Q 1191 994 1439 701 
Q 1688 409 2113 409 
Q 2538 409 2786 701 
Q 3034 994 3034 1497 
Q 3034 2003 2786 2293 
Q 2538 2584 2113 2584 
z
M 3366 4563 
L 3366 3988 
Q 3128 4100 2886 4159 
Q 2644 4219 2406 4219 
Q 1781 4219 1451 3797 
Q 1122 3375 1075 2522 
Q 1259 2794 1537 2939 
Q 1816 3084 2150 3084 
Q 2853 3084 3261 2657 
Q 3669 2231 3669 1497 
Q 3669 778 3244 343 
Q 2819 -91 2113 -91 
Q 1303 -91 875 529 
Q 447 1150 447 2328 
Q 447 3434 972 4092 
Q 1497 4750 2381 4750 
Q 2619 4750 2861 4703 
Q 3103 4656 3366 4563 
z
" transform="scale(0.015625)"/>
       </defs>
       <use xlink:href="#DejaVuSans-36"/>
      </g>
     </g>
    </g>
    <g id="text_11">
     <!-- Max Flags Submitted -->
     <g transform="translate(18.827813 176.367094) rotate(-90) scale(0.1 -0.1)">
      <defs>
       <path id="DejaVuSans-4d" d="M 628 4666 
L 1569 4666 
L 2759 1491 
L 3956 4666 
L 4897 4666 
L 4897 0 
L 4281 0 
L 4281 4097 
L 3078 897 
L 2444 897 
L 1241 4097 
L 1241 0 
L 628 0 
L 628 4666 
z
" transform="scale(0.015625)"/>
       <path id="DejaVuSans-78" d="M 3513 3500 
L 2247 1797 
L 3578 0 
L 2900 0 
L 1881 1375 
L 863 0 
L 184 0 
L 1544 1831 
L 300 3500 
L 978 3500 
L 1906 2253 
L 2834 3500 
L 3513 3500 
z
" transform="scale(0.015625)"/>
       <path id="DejaVuSans-20" transform="scale(0.015625)"/>
       <path id="DejaVuSans-46" d="M 628 4666 
L 3309 4666 
L 3309 4134 
L 1259 4134 
L 1259 2759 
L 3109 2759 
L 3109 2228 
L 1259 2228 
L 1259 0 
L 628 0 
L 628 4666 
z
" transform="scale(0.015625)"/>
       <path id="DejaVuSans-53" d="M 3425 4513 
L 3425 3897 
Q 3066 4069 2747 4153 
Q 2428 4238 2131 4238 
Q 1616 4238 1336 4038 
Q 1056 3838 1056 3469 
Q 1056 3159 1242 3001 
Q 1428 2844 1947 2747 
L 2328 2669 
Q 3034 2534 3370 2195 
Q 3706 1856 3706 1288 
Q 3706 609 3251 259 
Q 2797 -91 1919 -91 
Q 1588 -91 1214 -16 
Q 841 59 441 206 
L 441 856 
Q 825 641 1194 531 
Q 1563 422 1919 422 
Q 2459 422 2753 634 
Q 3047 847 3047 1241 
Q 3047 1584 2836 1778 
Q 2625 1972 2144 2069 
L 1759 2144 
Q 1053 2284 737 2584 
Q 422 2884 422 3419 
Q 422 4038 858 4394 
Q 1294 4750 2059 4750 
Q 2388 4750 2728 4690 
Q 3069 4631 3425 4513 
z
" transform="scale(0.015625)"/>
       <path id="DejaVuSans-64" d="M 2906 2969 
L 2906 4863 
L 3481 4863 
L 3481 0 
L 2906 0 
L 2906 525 
Q 2725 213 2448 61 
Q 2172 -91 1784 -91 
Q 1150 -91 751 415 
Q 353 922 353 1747 
Q 353 2572 751 3078 
Q 1150 3584 1784 3584 
Q 2172 3584 2448 3432 
Q 2725 3281 2906 2969 
z
M 947 1747 
Q 947 1113 1208 752 
Q 1469 391 1925 391 
Q 2381 391 2643 752 
Q 2906 1113 2906 1747 
Q 2906 2381 2643 2742 
Q 2381 3103 1925 3103 
Q 1469 3103 1208 2742 
Q 947 2381 947 1747 
z
" transform="scale(0.015625)"/>
      </defs>
      <use xlink:href="#DejaVuSans-4d"/>
      <use xlink:href="#DejaVuSans-61" transform="translate(86.279297 0)"/>
      <use xlink:href="#DejaVuSans-78" transform="translate(147.558594 0)"/>
      <use xlink:href="#DejaVuSans-20" transform="translate(206.738281 0)"/>
      <use xlink:href="#DejaVuSans-46" transform="translate(238.525391 0)"/>
      <use xlink:href="#DejaVuSans-6c" transform="translate(296.044922 0)"/>
      <use xlink:href="#DejaVuSans-61" transform="translate(323.828125 0)"/>
      <use xlink:href="#DejaVuSans-67" transform="translate(385.107422 0)"/>
      <use xlink:href="#DejaVuSans-73" transform="translate(448.583984 0)"/>
      <use xlink:href="#DejaVuSans-20" transform="translate(500.683594 0)"/>
      <use xlink:href="#DejaVuSans-53" transform="translate(532.470703 0)"/>
      <use xlink:href="#DejaVuSans-75" transform="translate(595.947266 0)"/>
      <use xlink:href="#DejaVuSans-62" transform="translate(659.326172 0)"/>
      <use xlink:href="#DejaVuSans-6d" transform="translate(722.802734 0)"/>
      <use xlink:href="#DejaVuSans-69" transform="translate(820.214844 0)"/>
      <use xlink:href="#DejaVuSans-74" transform="translate(847.998047 0)"/>
      <use xlink:href="#DejaVuSans-74" transform="translate(887.207031 0)"/>
      <use xlink:href="#DejaVuSans-65" transform="translate(926.416016 0)"/>
      <use xlink:href="#DejaVuSans-64" transform="translate(987.939453 0)"/>
     </g>
    </g>
   </g>
   <g id="LineCollection_1">
    <path d="M 75.7 123.796 
L 113.13 123.796 
" clip-path="url(#p97731a02b7)" style="fill: none; stroke: #1f77b4; stroke-width: 1.5"/>
    <path d="M 225.42 21.072364 
L 262.85 21.072364 
" clip-path="url(#p97731a02b7)" style="fill: none; stroke: #1f77b4; stroke-width: 1.5"/>
    <path d="M 375.14 192.278424 
L 412.57 192.278424 
" clip-path="url(#p97731a02b7)" style="fill: none; stroke: #1f77b4; stroke-width: 1.5"/>
   </g>
   <g id="LineCollection_2">
    <path d="M 75.7 192.278424 
L 113.13 192.278424 
" clip-path="url(#p97731a02b7)" style="fill: none; stroke: #1f77b4; stroke-width: 1.5"/>
    <path d="M 225.42 226.519636 
L 262.85 226.519636 
" clip-path="url(#p97731a02b7)" style="fill: none; stroke: #1f77b4; stroke-width: 1.5"/>
    <path d="M 375.14 226.519636 
L 412.57 226.519636 
" clip-path="url(#p97731a02b7)" style="fill: none; stroke: #1f77b4; stroke-width: 1.5"/>
   </g>
   <g id="LineCollection_3">
    <path d="M 94.415 192.278424 
L 94.415 123.796 
" clip-path="url(#p97731a02b7)" style="fill: none; stroke: #1f77b4; stroke-width: 1.5"/>
    <path d="M 244.135 226.519636 
L 244.135 21.072364 
" clip-path="url(#p97731a02b7)" style="fill: none; stroke: #1f77b4; stroke-width: 1.5"/>
    <path d="M 393.855 226.519636 
L 393.855 192.278424 
" clip-path="url(#p97731a02b7)" style="fill: none; stroke: #1f77b4; stroke-width: 1.5"/>
   </g>
   <g id="LineCollection_4">
    <path d="M 75.7 192.278424 
L 113.13 192.278424 
" clip-path="url(#p97731a02b7)" style="fill: none; stroke: #000000"/>
    <path d="M 225.42 72.434182 
L 262.85 72.434182 
" clip-path="url(#p97731a02b7)" style="fill: none; stroke: #000000"/>
    <path d="M 375.14 226.519636 
L 412.57 226.519636 
" clip-path="url(#p97731a02b7)" style="fill: none; stroke: #000000"/>
   </g>
   <g id="patch_3">
    <path d="M 38.27 236.792 
L 38.27 10.8 
" style="fill: none; stroke: #000000; stroke-width: 0.8; stroke-linejoin: miter; stroke-linecap: square"/>
   </g>
   <g id="patch_4">
    <path d="M 38.27 236.792 
L 450 236.792 
" style="fill: none; stroke: #000000; stroke-width: 0.8; stroke-linejoin: miter; stroke-linecap: square"/>
   </g>
  </g>
 </g>
 <defs>
  <clipPath id="p97731a02b7">
   <rect x="38.27" y="10.8" width="411.73" height="225.992"/>
  </clipPath>
 </defs>
</svg>
